<svg width="103" height="28" viewBox="0 0 103 28" fill="none" xmlns="http://www.w3.org/2000/svg">
<path d="M12.564 14.472C13.476 14.616 14.304 14.988 15.048 15.588C15.816 16.188 16.416 16.932 16.848 17.82C17.304 18.708 17.532 19.656 17.532 20.664C17.532 21.936 17.208 23.088 16.56 24.12C15.912 25.128 14.964 25.932 13.716 26.532C12.492 27.108 11.04 27.396 9.36003 27.396H2.7597e-05V2.304H9.00003C10.704 2.304 12.156 2.592 13.356 3.16799C14.556 3.71999 15.456 4.476 16.056 5.436C16.656 6.39599 16.956 7.47599 16.956 8.67599C16.956 10.164 16.548 11.4 15.732 12.384C14.94 13.344 13.884 14.04 12.564 14.472ZM3.27603 13.14H8.78403C10.32 13.14 11.508 12.78 12.348 12.06C13.188 11.34 13.608 10.344 13.608 9.072C13.608 7.8 13.188 6.804 12.348 6.084C11.508 5.364 10.296 5.00399 8.71203 5.00399H3.27603V13.14ZM9.07203 24.696C10.704 24.696 11.976 24.312 12.888 23.544C13.8 22.776 14.256 21.708 14.256 20.34C14.256 18.948 13.776 17.856 12.816 17.064C11.856 16.248 10.572 15.84 8.96403 15.84H3.27603V24.696H9.07203ZM25.3542 10.872C25.9302 9.74399 26.7462 8.868 27.8022 8.244C28.8822 7.62 30.1902 7.308 31.7262 7.308V10.692H30.8622C27.1902 10.692 25.3542 12.684 25.3542 16.668V27.396H22.0782V7.66799H25.3542V10.872ZM37.1998 4.464C36.5758 4.464 36.0478 4.248 35.6158 3.81599C35.1838 3.38399 34.9678 2.85599 34.9678 2.23199C34.9678 1.60799 35.1838 1.08 35.6158 0.647995C36.0478 0.215995 36.5758 -5.24521e-06 37.1998 -5.24521e-06C37.7998 -5.24521e-06 38.3038 0.215995 38.7118 0.647995C39.1438 1.08 39.3598 1.60799 39.3598 2.23199C39.3598 2.85599 39.1438 3.38399 38.7118 3.81599C38.3038 4.248 37.7998 4.464 37.1998 4.464ZM38.7838 7.66799V27.396H35.5078V7.66799H38.7838ZM48.3632 10.368V21.996C48.3632 22.956 48.5672 23.64 48.9752 24.048C49.3832 24.432 50.0912 24.624 51.0992 24.624H53.5112V27.396H50.5592C48.7352 27.396 47.3672 26.976 46.4552 26.136C45.5432 25.296 45.0872 23.916 45.0872 21.996V10.368H42.5312V7.66799H45.0872V2.69999H48.3632V7.66799H53.5112V10.368H48.3632Z" fill="black"/>
<path d="M60.7565 0.755996V27.396H57.4805V0.755996H60.7565ZM84.3399 16.776C84.3399 17.4 84.3039 18.06 84.2319 18.756H68.4639C68.5839 20.7 69.2439 22.224 70.4439 23.328C71.6679 24.408 73.1439 24.948 74.8719 24.948C76.2879 24.948 77.4639 24.624 78.3999 23.976C79.3599 23.304 80.0319 22.416 80.4159 21.312H83.9439C83.4159 23.208 82.3599 24.756 80.7759 25.956C79.1919 27.132 77.2239 27.72 74.8719 27.72C72.9999 27.72 71.3199 27.3 69.8319 26.46C68.3679 25.62 67.2159 24.432 66.3759 22.896C65.5359 21.336 65.1159 19.536 65.1159 17.496C65.1159 15.456 65.5239 13.668 66.3399 12.132C67.1559 10.596 68.2959 9.42 69.7599 8.604C71.2479 7.76399 72.9519 7.34399 74.8719 7.34399C76.7439 7.34399 78.3999 7.752 79.8399 8.568C81.2799 9.384 82.3839 10.512 83.1519 11.952C83.9439 13.368 84.3399 14.976 84.3399 16.776ZM80.9559 16.092C80.9559 14.844 80.6799 13.776 80.1279 12.888C79.5759 11.976 78.8199 11.292 77.8599 10.836C76.9239 10.356 75.8799 10.116 74.7279 10.116C73.0719 10.116 71.6559 10.644 70.4799 11.7C69.3279 12.756 68.6679 14.22 68.4999 16.092H80.9559ZM98.9601 27.396L94.2801 20.052L89.7801 27.396H86.3601L92.7321 17.604L86.3601 7.66799H90.0681L94.7481 14.976L99.2121 7.66799H102.632L96.2961 17.424L102.668 27.396H98.9601Z" fill="#939393"/>
</svg>
